# Alias OBJ Model File
# Exported from SketchUp, (c) 2000-2012 Trimble Navigation Limited
# File units = meters

mtllib hex.mtl

g Mesh1 Model

usemtl FrontColor
v 1.62526 0.164603 0.388201
vt 63.5801 15.6662
vn -0.0501969 -0.997905 0.0408243
v 0.251426 0.240412 0.552034
vt 9.41066 22.1217
v 0.890253 0.188691 0.0732595
vt 34.6319 3.2566
f 1/1/1 2/2/1 3/3/1

v 1.72143 0.192236 1.18192
vt 67.3072 46.941
f 2/2/1 1/1/1 4/4/1

v 1.72013 2.05064 0.311043
vt 84.3426 19.629
vn 0.991477 -0.0547106 -0.118236
vt 11.2909 54.1576
vt 9.99604 22.6881
f 5/5/2 4/6/2 1/7/2

v 1.81631 2.07828 1.10476
vt 85.6375 51.0984
f 4/6/2 5/5/2 6/8/2

vt -63.5801 15.6662
vn 0.0501969 0.997905 -0.0408243
v 0.346298 2.12645 0.474876
vt -9.41066 22.1217
vt -67.3072 46.941
f 5/9/3 7/10/3 6/11/3

v 0.985125 2.07473 -0.00389854
vt -34.6319 3.2566
f 7/10/3 5/9/3 8/12/3

vt 15.6708 63.331
vn 0.391623 -0.0572689 -0.918342
vt 86.4346 24.3278
vt 89.6834 55.6559
f 1/13/4 8/14/4 5/15/4

vt 12.4221 32.0029
f 8/14/4 1/13/4 3/16/4

vt -7.27922 -26.3381
vn -0.599854 -0.00255834 -0.800105
vt -83.6597 0.0208801
vt -81.5161 -31.4022
f 3/17/5 7/18/5 8/19/5

vt -9.42273 5.08493
f 7/18/5 3/17/5 2/20/5

v 0.347604 0.268045 1.34575
vt -11.2909 54.1576
vn -0.991477 0.0547106 0.118236
vt -84.3426 19.629
vt -9.99604 22.6881
f 9/21/6 7/22/6 2/23/6

v 0.442476 2.15408 1.26859
vt -85.6375 51.0984
f 7/22/6 9/21/6 10/24/6

v 1.08261 0.243957 1.66069
vt -15.6708 63.331
vn -0.391623 0.0572689 0.918342
vt -86.4346 24.3278
vt -12.4221 32.0029
f 11/25/7 10/26/7 9/27/7

v 1.17748 2.13 1.58353
vt -89.6834 55.6559
f 10/26/7 11/25/7 12/28/7

vt 7.27922 -26.3381
vn 0.599854 0.00255834 0.800105
vt 83.6597 0.0208801
vt 9.42273 5.08493
f 4/29/8 12/30/8 11/31/8

vt 81.5161 -31.4022
f 12/30/8 4/29/8 6/32/8

vt -13.1377 53.3965
vt -42.086 65.8061
f 6/11/3 10/33/3 12/34/3

f 6/11/3 7/10/3 10/33/3

vt 13.1377 53.3965
vt 42.086 65.8061
f 9/35/1 4/4/1 11/36/1

f 2/2/1 4/4/1 9/35/1

